<svg width="120" height="144" viewBox="0 0 120 144" fill="none" xmlns="http://www.w3.org/2000/svg">
<path fill-rule="evenodd" clip-rule="evenodd" d="M83.5073 141.868C80.7782 143.331 76.9594 144 72 144C32.2355 144 0 111.765 0 72C0 32.2355 32.2355 0 72 0C76.875 0 80.5237 0.315772 83.092 1.02085C85.6055 1.71089 87.7008 2.95983 88.2945 5.288C88.8308 7.39104 87.884 9.5901 86.7543 11.4947C85.5615 13.5058 83.7858 15.7885 81.8074 18.2542C81.4004 18.7615 80.9828 19.2792 80.5567 19.8075C72.5323 29.7565 61.5 43.4349 61.5 61C61.5 70.2512 64.5677 79.8432 68.7165 89.1517C71.59 95.5991 74.9098 101.765 78.0207 107.543C79.4172 110.137 80.7717 112.652 82.0247 115.08C84.024 118.954 85.7637 122.606 86.9212 125.902C88.0666 129.163 88.7239 132.296 88.3372 135.058C87.9288 137.975 86.3721 140.333 83.5073 141.868ZM76.3029 108.573C68.663 94.3815 59.5 77.3612 59.5 61C59.5 42.703 70.9596 28.5095 78.9331 18.6338C87.8068 7.64301 92.3629 2 72 2C33.3401 2 2 33.3401 2 72C2 110.66 33.3401 142 72 142C94.2987 142 86.7154 127.914 76.3029 108.573Z" fill="#AC1356"/>
<path d="M108 72C108 91.8823 91.8823 108 72 108C52.1177 108 36 91.8823 36 72C36 52.1177 52.1177 36 72 36C91.8823 36 108 52.1177 108 72Z" fill="white"/>
<path fill-rule="evenodd" clip-rule="evenodd" d="M120 72C120 98.5097 98.5097 120 72 120C45.4903 120 24 98.5097 24 72C24 45.4903 45.4903 24 72 24C98.5097 24 120 45.4903 120 72ZM72 108C91.8823 108 108 91.8823 108 72C108 52.1177 91.8823 36 72 36C52.1177 36 36 52.1177 36 72C36 91.8823 52.1177 108 72 108Z" fill="#F2F2F2"/>
<path d="M72 64V80M72 80L78 74M72 80L66 74" stroke="black" stroke-width="2" stroke-linecap="round" stroke-linejoin="round"/>
</svg>
