<svg width="16" height="16" viewBox="0 0 16 16" fill="none" xmlns="http://www.w3.org/2000/svg">
<g clip-path="url(#clip0_3001_303)">
<path fill-rule="evenodd" clip-rule="evenodd" d="M7.99049 8.25586C5.69654 8.25586 3.79138 6.49642 3.79138 4.41382C3.79138 2.25943 5.69654 0.5 7.99049 0.5C10.3622 0.5 12.1896 2.25943 12.1896 4.41382C12.1896 6.49642 10.3622 8.25586 7.99049 8.25586ZM7.99049 2.76212C7.01849 2.76212 6.27974 3.51616 6.27974 4.41383C6.27974 5.3115 7.01849 5.9937 7.99049 5.9937C9.00139 5.9937 9.70124 5.3115 9.70124 4.41383C9.70124 3.51616 9.00139 2.76212 7.99049 2.76212ZM9.6624 11.4516L12.0341 13.57C12.5006 14.0368 12.5006 14.719 12.0341 15.1499C11.5286 15.6167 10.751 15.6167 10.3622 15.1499L7.99049 12.9955L5.69654 15.1499C5.46325 15.3654 5.15221 15.4731 4.80228 15.4731C4.53011 15.4731 4.21907 15.3654 3.9469 15.1499C3.48034 14.719 3.48034 14.0368 3.9469 13.57L6.35749 11.4516C5.46325 11.2002 4.64676 10.877 3.86914 10.4461C3.28593 10.1589 3.16929 9.44076 3.48034 8.90215C3.86914 8.36354 4.569 8.21992 5.19109 8.57901C6.90184 9.54849 9.07914 9.54849 10.7899 8.57901C11.412 8.21992 12.1507 8.36354 12.5006 8.90215C12.8506 9.44076 12.695 10.1589 12.1507 10.4461C11.412 10.877 10.5566 11.2002 9.6624 11.4516Z" fill="white"/>
</g>
<defs>
<clipPath id="clip0_3001_303">
<rect width="15" height="15" fill="white" transform="translate(0.5 0.5)"/>
</clipPath>
</defs>
</svg>
